<?xml version="1.0" encoding="UTF-8"?>
<svg xmlns="http://www.w3.org/2000/svg" xmlns:xlink="http://www.w3.org/1999/xlink" width="10pt" height="10pt" viewBox="0 0 10 10" version="1.1">
<g id="surface1">
<path style=" stroke:none;fill-rule:nonzero;fill:rgb(0%,0%,0%);fill-opacity:1;" d="M 7.082031 5 C 7.082031 6.152344 6.152344 7.082031 5 7.082031 C 3.847656 7.082031 2.917969 6.152344 2.917969 5 C 2.917969 3.847656 3.847656 2.917969 5 2.917969 C 6.152344 2.917969 7.082031 3.847656 7.082031 5 Z M 7.082031 5 "/>
<path style=" stroke:none;fill-rule:nonzero;fill:rgb(0%,0%,0%);fill-opacity:1;" d="M 9.582031 4.582031 L 9.144531 4.582031 C 8.949219 2.617188 7.382812 1.050781 5.417969 0.855469 L 5.417969 0.417969 C 5.417969 0.1875 5.230469 0 5 0 C 4.769531 0 4.582031 0.1875 4.582031 0.417969 L 4.582031 0.855469 C 2.617188 1.050781 1.050781 2.617188 0.855469 4.582031 L 0.417969 4.582031 C 0.1875 4.582031 0 4.769531 0 5 C 0 5.230469 0.1875 5.417969 0.417969 5.417969 L 0.855469 5.417969 C 1.050781 7.382812 2.617188 8.949219 4.582031 9.144531 L 4.582031 9.582031 C 4.582031 9.8125 4.769531 10 5 10 C 5.230469 10 5.417969 9.8125 5.417969 9.582031 L 5.417969 9.144531 C 7.382812 8.949219 8.949219 7.382812 9.144531 5.417969 L 9.582031 5.417969 C 9.8125 5.417969 10 5.230469 10 5 C 10 4.769531 9.8125 4.582031 9.582031 4.582031 Z M 5.410156 8.304688 C 5.394531 8.089844 5.21875 7.917969 5 7.917969 C 4.78125 7.917969 4.605469 8.089844 4.589844 8.304688 C 3.078125 8.117188 1.882812 6.921875 1.695312 5.410156 C 1.910156 5.394531 2.082031 5.21875 2.082031 5 C 2.082031 4.78125 1.910156 4.605469 1.695312 4.589844 C 1.882812 3.078125 3.078125 1.882812 4.589844 1.695312 C 4.605469 1.910156 4.78125 2.082031 5 2.082031 C 5.21875 2.082031 5.394531 1.910156 5.410156 1.695312 C 6.921875 1.882812 8.117188 3.078125 8.304688 4.589844 C 8.089844 4.605469 7.917969 4.78125 7.917969 5 C 7.917969 5.21875 8.089844 5.394531 8.304688 5.410156 C 8.117188 6.921875 6.921875 8.117188 5.410156 8.304688 Z M 5.410156 8.304688 "/>
</g>
</svg>
