<?xml version="1.0" encoding="UTF-8"?>
<svg xmlns="http://www.w3.org/2000/svg" xmlns:xlink="http://www.w3.org/1999/xlink" width="10pt" height="12pt" viewBox="0 0 10 12" version="1.1">
<g id="surface1">
<path style=" stroke:none;fill-rule:evenodd;fill:rgb(0%,0%,0%);fill-opacity:1;" d="M 4.964844 0 C 2.242188 -0.0078125 1.558594 1.980469 1.558594 3.160156 C 1.566406 5.703125 2.949219 7.644531 4.996094 10.8125 C 6.996094 7.609375 8.34375 5.703125 8.34375 3.171875 C 8.34375 1.921875 7.6875 0.0078125 4.964844 0 Z M 4.933594 1.601562 C 5.867188 1.601562 6.625 2.316406 6.625 3.191406 C 6.625 4.070312 5.867188 4.78125 4.933594 4.78125 C 3.996094 4.78125 3.238281 4.070312 3.238281 3.191406 C 3.238281 2.316406 3.996094 1.601562 4.933594 1.601562 Z M 4.933594 1.601562 "/>
<path style="fill:none;stroke-width:1.516915;stroke-linecap:round;stroke-linejoin:miter;stroke:rgb(0%,0%,0%);stroke-opacity:1;stroke-miterlimit:4;" d="M 897.446177 961.827707 C 908.165971 963.177359 913.985288 966.39911 911.412538 969.555555 C 908.839787 972.712 898.569203 974.932396 886.746802 974.932396 C 874.9244 974.910628 864.735491 972.646695 862.285252 969.490249 C 859.814595 966.333804 865.736005 963.133822 876.517055 961.805938 " transform="matrix(0.191308,0,0,0.179444,-164.711976,-163.414858)"/>
</g>
</svg>
